<svg width="24" height="24" viewBox="0 0 24 24" fill="none" xmlns="http://www.w3.org/2000/svg">
<path d="M23.2407 5.39078H23.0227C21.8756 5.38899 20.9448 6.31831 20.9448 7.46566V12.106C20.9448 13.0326 20.1791 13.7832 19.2679 13.7832C18.7265 13.7832 18.1861 13.5107 17.8653 13.0532L13.1278 6.28436C12.7348 5.7223 12.0951 5.38721 11.4028 5.38721C10.3227 5.38721 9.3507 6.3058 9.3507 7.43975V12.1069C9.3507 13.0335 8.59135 13.7841 7.67386 13.7841C7.1307 13.7841 6.59111 13.5116 6.27039 13.0541L0.969179 5.47925C0.849468 5.30768 0.580566 5.39257 0.580566 5.60167V9.64867C0.580566 9.8533 0.643102 10.0517 0.760132 10.2197L5.97737 17.673C6.28558 18.1135 6.7403 18.4406 7.2647 18.5594C8.57705 18.8579 9.78488 17.8472 9.78488 16.5596V11.8951C9.78488 10.9685 10.5353 10.2179 11.4617 10.2179H11.4644C12.0228 10.2179 12.5463 10.4904 12.867 10.9479L17.6054 17.7159C17.9993 18.2788 18.6059 18.613 19.3296 18.613C20.4338 18.613 21.3798 17.6935 21.3798 16.5605V11.8942C21.3798 10.9676 22.1302 10.217 23.0567 10.217H23.2416C23.3577 10.217 23.4515 10.1232 23.4515 10.007V5.60077C23.4515 5.48461 23.3577 5.39078 23.2416 5.39078H23.2407Z" fill="#0B100F"/>
</svg>
